<?xml version="1.0" standalone="no"?>
<!DOCTYPE svg PUBLIC "-//W3C//DTD SVG 20010904//EN"
 "http://www.w3.org/TR/2001/REC-SVG-20010904/DTD/svg10.dtd">
<svg version="1.0" xmlns="http://www.w3.org/2000/svg"
 width="512.000000pt" height="512.000000pt" viewBox="0 0 512.000000 512.000000"
 preserveAspectRatio="xMidYMid meet">

<g transform="translate(0.000000,512.000000) scale(0.100000,-0.100000)"
fill="#000000" stroke="none">
<path d="M2896 4593 c-3 -38 -31 -473 -61 -968 -30 -495 -58 -920 -63 -944
l-7 -43 -188 -95 c-104 -52 -190 -93 -192 -91 -2 2 -29 345 -59 763 -31 418
-59 788 -62 823 l-6 62 -303 0 -302 0 -11 -117 c-5 -65 -34 -393 -63 -729
l-54 -611 -437 -219 -438 -219 0 -581 0 -582 -25 -6 c-14 -4 -30 -4 -35 -1 -6
4 -10 -19 -10 -54 l0 -61 2000 0 2000 0 0 58 0 58 -32 -1 -33 0 -3 923 c-1
507 -4 922 -7 922 -3 0 -199 -97 -436 -216 -237 -118 -433 -214 -434 -212 -2
2 -28 462 -59 1023 -31 561 -59 1057 -62 1103 l-6 82 -303 0 -303 0 -6 -67z
m498 -55 c3 -7 7 -39 10 -70 l6 -58 -206 0 -207 0 7 38 c3 20 6 49 6 64 l0 28
178 3 c97 1 183 4 190 5 7 1 14 -4 16 -10z m20 -287 c3 -24 6 -54 6 -67 l0
-24 -215 0 -215 0 0 64 c0 78 -22 71 231 71 l187 0 6 -44z m11 -214 c2 -7 22
-345 45 -752 22 -407 43 -775 46 -817 l6 -77 -131 -65 -131 -66 0 310 c0 170
-2 310 -5 310 -3 0 -82 -39 -176 -86 -94 -47 -174 -83 -177 -79 -5 5 63 1208
74 1292 l5 42 220 0 c158 -1 221 -4 224 -12z m-1275 -76 c0 -10 3 -39 6 -65
l7 -46 -207 0 -206 0 0 43 c0 93 -13 87 206 87 182 0 194 -1 194 -19z m20
-265 c0 -18 3 -48 6 -65 l7 -31 -227 0 -226 0 0 49 c0 86 -15 81 226 81 l214
0 0 -34z m20 -236 c0 -27 68 -962 74 -1023 l5 -47 -129 -65 -130 -65 0 310 c0
170 -3 310 -7 310 -5 -1 -86 -40 -180 -88 -95 -49 -173 -86 -173 -83 -1 3 14
178 32 389 l32 382 238 0 c231 0 238 -1 238 -20z m-290 -1080 l0 -310 620 310
c341 170 622 310 625 310 3 0 5 -140 5 -310 l0 -310 620 310 c341 170 622 310
625 310 3 0 4 -315 3 -700 l-3 -701 -1065 0 -1065 0 -3 156 -3 155 -619 0
-620 0 0 -157 0 -158 -127 1 -128 2 -3 420 -2 419 562 281 c310 154 566 281
571 281 4 1 7 -139 7 -309z m248 -1121 l-3 -220 -495 0 c-272 1 -498 1 -502 1
-5 0 -8 99 -8 220 l0 220 505 0 505 0 -2 -221z m-1128 -154 c0 -36 -3 -65 -7
-66 -5 0 -62 -1 -128 -1 l-120 -1 -3 67 -3 66 131 0 130 0 0 -65z m3380 0 l0
-65 -1040 -1 c-572 -1 -1049 -1 -1060 -1 -11 0 -24 0 -30 1 -6 1 -10 30 -10
66 l0 65 1070 0 1070 0 0 -65z"/>
<path d="M1020 1730 l0 -60 623 0 622 0 -1 57 -2 58 -621 3 -621 2 0 -60z"/>
<path d="M2520 1605 l0 -185 60 0 60 0 0 185 0 185 -60 0 -60 0 0 -185z"/>
<path d="M2900 1605 l0 -185 55 0 55 0 0 185 0 185 -55 0 -55 0 0 -185z"/>
<path d="M3270 1605 l0 -185 60 0 60 0 0 185 0 185 -60 0 -60 0 0 -185z"/>
<path d="M3650 1605 l0 -185 55 0 55 0 0 185 0 185 -55 0 -55 0 0 -185z"/>
<path d="M4020 1605 l0 -185 60 0 60 0 0 185 0 185 -60 0 -60 0 0 -185z"/>
</g>
</svg>
